<?xml version="1.0" encoding="utf-8"?>
<!-- Generator: Adobe Illustrator 27.5.0, SVG Export Plug-In . SVG Version: 6.00 Build 0)  -->
<svg version="1.1" id="Layer_1" xmlns="http://www.w3.org/2000/svg" xmlns:xlink="http://www.w3.org/1999/xlink" x="0px" y="0px"
	 viewBox="0 0 1920 1080" style="enable-background:new 0 0 1920 1080;" xml:space="preserve">
<g>
	<defs>
		<rect id="SVGID_1_" width="1920" height="1080"/>
	</defs>
	<clipPath id="SVGID_00000137846086645305771260000010615054124088914842_">
		<use xlink:href="#SVGID_1_"  style="overflow:visible;"/>
	</clipPath>
	
		<rect style="clip-path:url(#SVGID_00000137846086645305771260000010615054124088914842_);fill-rule:evenodd;clip-rule:evenodd;fill:#4f772d;" width="1920" height="1080"/>
	<g style="clip-path:url(#SVGID_00000137846086645305771260000010615054124088914842_);">
		<path style="fill:#ecf39e;" d="M382.82,1006.25c-41.746-65.406-87.337-127.066-131.625-189.5
			c-13.448-19.18-26.9-38.365-40.347-57.544c-4.124-6.152-9.274-17.638-21.496-15.213c-22.727,4.51-44.392,32.301-60.521,45.308
			c-43.65,39.131-87.313,78.273-130.963,117.404c-2.139,2.476-0.662,33.04-0.661,39.024c0,37.367,0,74.745,0,112.112
			c0.11,0,0.22,0,0.331,0c10.141-10.912,20.285-21.828,30.426-32.741c16.644-17.196,33.294-34.396,49.938-51.592
			c10.495-13.057,24.003-26.888,37.371-37.04c10.184-7.734,38.468-27.921,59.198-17.528c11.543,5.787,18.158,17.982,25.134,28.441
			c13.672,20.5,26.522,41.846,39.686,62.836c9.829,15.673,18.268,32.422,27.78,48.615c2.858,4.865,11.245,15.369,11.575,21.166
			c51.146,0,102.306,0,153.452,0c-0.81-6.04-10.233-15.837-13.559-20.835C406.633,1041.529,394.724,1023.887,382.82,1006.25z"/>
		<path style="fill:#ecf39e;" d="M0.844,23.034c0.528-0.652,0.448-0.452,0.661-1.654c-0.331,0-0.661,0-0.992,0
			C0.316,22.502,0.254,22.173,0.844,23.034z"/>
		<path style="fill:#ecf39e;" d="M324.945,158.628c0.11-0.441,0.22-0.882,0.331-1.323c-0.331,0-0.661,0-0.992,0
			c0.11,0.441,0.221,0.882,0.331,1.323C324.724,158.628,324.835,158.628,324.945,158.628z"/>
		<path style="fill:#ecf39e;" d="M136.106,1052.551c-2.46-1.405-6-1.374-9.922-1.323c-13.979,7.495-26.981,15.875-36.379,27.78
			c0,0.331,0,0.661,0,0.992c21.384,0,42.775,0,64.159,0C152.98,1073.104,141.347,1055.543,136.106,1052.551z"/>
		<path style="fill:#ecf39e;" d="M44.168,592.857c1.516-7.265-5.135-12.378-8.268-15.544c-8.708-9.369-17.419-18.742-26.127-28.111
			c-3.322-4.143-7.684-10.866-12.567-13.229c0,32.076,0,64.162,0,96.238c4.989-1.695,8.521-5.861,12.567-8.599
			C19.163,617.262,41.714,604.611,44.168,592.857z"/>
		<path style="fill:#ecf39e;" d="M60.042,237.999c3.051-9.053-6.801-27.469-9.26-34.064c-1.305-0.791-2.096-1.271-4.299-1.323
			c-7.473,3.399-15.057,4.508-22.158,7.607c-9.039,4.409-18.08,8.819-27.119,13.229c0,17.085,0,34.176,0,51.261
			c15.432-8.267,30.868-16.537,46.3-24.804C49.003,246.713,57.902,244.349,60.042,237.999z"/>
		<path style="fill:#ecf39e;" d="M-1.471,23.365c-0.441-0.22-0.882-0.441-1.323-0.661c0,0.551,0,1.102,0,1.654
			c0.331-0.11,0.661-0.221,0.992-0.331C-1.692,23.806-1.581,23.586-1.471,23.365z"/>
		<path style="fill:#ecf39e;" d="M1068.062,44.862c2.127,3.047,36.038,7.829,42.993,6.284c7.102-1.578,10.213-7.529,14.552-11.906
			c11.794-12.786,23.592-25.577,35.386-38.363c-17.526-0.11-35.058-0.221-52.584-0.331c-4.396,9.839-19.155,24.866-27.449,31.418
			c-4.432,3.5-11.017,6.615-13.559,11.906C1067.621,44.2,1067.841,44.531,1068.062,44.862z"/>
		<path style="fill:#ecf39e;" d="M211.509,16.42c14.512,2.932,36.664,7.673,52.584,3.307c14.338-3.932,26.108-12.739,39.355-17.859
			c0.331-0.441,0.661-0.882,0.992-1.323c-39.351,0-78.714,0-118.065,0c-0.882,1.433-1.764,2.866-2.646,4.299
			C184.352,14.806,202.436,14.587,211.509,16.42z"/>
		<path style="fill:#ecf39e;" d="M1563.804,70.657c18.045,3.334,38.766,2.397,53.907,8.929c3.548,1.531,7.876,4.566,9.591,7.937
			c2.379,4.676,0.946,10.422,1.984,16.867c0.661,21.053,1.323,42.113,1.984,63.167c0.22,6.173,0.441,12.347,0.661,18.52
			c3.603,10.505,26.171,7.549,38.694,9.591c8.869,1.446,24.553,3.154,30.756-1.323c2.352-10.626-2.002-30.619-3.969-41.339
			c-2.094-19.841-4.189-39.688-6.284-59.529c-1.364-8.003-0.802-16.145-2.646-22.819c-9.547-6.419-25.85-5.464-39.355-7.937
			c-28.218-3.858-56.445-7.717-84.663-11.575c-13.128-2.503-36.326-0.802-42.993-9.921c-4.341-5.938,2.252-32.946,2.976-40.678
			c-18.298,0-36.601,0-54.899,0c-0.533,5.905-2.608,13.569-0.331,19.182c2.242,5.526,7.51,9.187,7.606,16.536
			c-4.16,2.444-15.371,2.31-21.496,1.323c-22.061-3.554-33.818-12.078-24.804-37.04c-14.881,0-29.766,0-44.646,0
			c-2.813,10.355-8.392,19.01-12.567,28.442c-1.624,3.669-4.443,6.813-4.63,11.906c10.835,7.96,47.428,8.233,64.159,11.575
			C1476.491,58.531,1520.154,64.595,1563.804,70.657z"/>
		<path style="fill:#ecf39e;" d="M4.482,14.766c2.392,3.899,3.876,7.512,6.614,10.914c6.398,7.948,16.688,14.838,21.166,24.473
			c4.567,1.996,20.43-6.955,25.465-8.599c0.331-0.771,0.661-1.543,0.992-2.315c-5.813-8.747-19.057-28.144-21.166-38.694
			c-13.448,0-26.9,0-40.347,0c0,2.645,0,5.292,0,7.937C-1.066,10.823,2.883,12.16,4.482,14.766z"/>
		<path style="fill:#ecf39e;" d="M4.151,21.381c0.331-0.331,0.661-0.661,0.992-0.992c-0.331,0-0.661,0-0.992,0
			C4.151,20.719,4.151,21.05,4.151,21.381z"/>
		<path style="fill:#ecf39e;" d="M113.948,17.412c12.307-4.891,23.759-10.998,35.387-15.544c0.331-0.441,0.661-0.882,0.992-1.323
			c-22.707,0-45.42,0-68.127,0c3.95,7.9,8.897,15.564,13.89,22.489C103.38,22.915,108.524,19.568,113.948,17.412z"/>
		<path style="fill:#ecf39e;" d="M2.828,21.381c0.11,0.22,0.221,0.441,0.331,0.661c0.468-0.66,0.258-0.507,0.331-0.992
			C3.269,21.16,3.049,21.271,2.828,21.381z"/>
		<path style="fill:#ecf39e;" d="M6.135,62.389c8.157-3.417,16.316-6.835,24.473-10.252c0-0.11,0-0.22,0-0.331
			c-0.331,0-0.661,0-0.992,0c-5.725,3.268-25.87,11.878-32.41,12.567C-1.481,66.041,3.7,63.257,6.135,62.389z"/>
		<path style="fill:#ecf39e;" d="M354.378,49.161c-0.22,0.11-0.441,0.221-0.661,0.331c0.551,0,1.102,0,1.654,0
			c0-0.11,0-0.22,0-0.331C355.04,49.161,354.709,49.161,354.378,49.161z"/>
		<path style="fill:#ecf39e;" d="M1770.832,7.821c-61.792-10.6-139.448-7.394-211.327-7.276c-0.882,9.81-1.764,19.623-2.646,29.434
			c7.139,5.59,28.351,4.59,39.355,6.614c31.746,4.299,63.5,8.599,95.246,12.898c11.685,2.157,29.132,1.177,37.04,7.606
			c3.833,3.116,4.972,19.743,6.284,26.127c3.748,22.376,7.497,44.759,11.244,67.135c2.866,16.093,5.733,32.191,8.599,48.284
			c1.347,6.691,1.347,16.185-2.315,19.843c-5.856,5.849-24.03,8.135-36.709,6.284c-36.765-5.368-79.166-1.68-113.766-9.921
			c-7.936-1.89-16.723-4.494-20.504-10.583c-5.441-8.76-3.547-57.675-1.323-71.765c1.311-8.303,2.374-35.169-2.315-37.702
			c-5.72-3.089-13.763-2.604-21.166-3.969c-13.999-1.874-28.002-3.748-42.001-5.622c-44.422-6.614-88.857-13.229-133.278-19.843
			c-15.211-2.315-30.427-4.63-45.639-6.945c-6.211-1.302-13.862-1.192-16.205-6.284c-1.891-5.242,3.778-11.241,5.622-14.551
			c6.888-12.367,15.158-24.256,21.166-36.709c-16.975-0.11-33.955-0.221-50.93-0.331c-3.113,13.818-15.812,34.103-22.819,45.969
			c-2.513,4.255-9.028,12.765-7.606,18.851c2.317,4.698,10.776,4.669,16.536,5.953c15.432,2.535,30.868,5.071,46.3,7.606
			c46.296,7.165,92.605,14.332,138.901,21.496c17.285,3.385,41.516,2.288,50.269,14.221c6.561,8.945,1.071,37.111-0.992,48.284
			c-1.946,10.541-0.927,25.998-6.283,33.733c-8.246,11.907-46.636,6.026-50.93-5.291c-2.331-6.142,6.371-40.389,7.937-47.954
			c1.662-8.026,3.329-16.94-3.638-19.843c-6.845-2.853-15.572-2.355-23.481-3.969c-20.172-3.086-40.349-6.174-60.521-9.26
			c-55.995-8.928-112.008-17.859-168.003-26.788c-0.11-0.22-0.22-0.441-0.331-0.661c19.031-22.827,31.396-51.802,42.662-82.348
			c-16.534,0-33.073,0-49.607,0c-5.423,4.172-9.737,11.064-13.89,16.536c-11.409,15.031-38.365,50.118-56.883,55.56
			c-9.914,2.914-25.429,1.351-35.387-0.331c-18.849-2.204-37.703-4.41-56.552-6.614c-12.105-2.115-26.802-1.262-29.103-12.898
			c-1.46-7.384,7.477-13.046,11.244-15.874c9.847-7.393,21.068-13.942,31.087-21.496c4.85-4.63,9.702-9.26,14.551-13.89
			c0.11-0.331,0.22-0.661,0.331-0.992c-81.568,0-163.161,0-244.729,0c-43.099,0-86.211,0-129.31,0
			c-6.708,2.028-14.494,3.621-22.819,4.961c-14.231,2.289-28.581-2.592-39.355-4.961c-19.069,0-38.144,0-57.214,0
			c-10.096,7.787-23.145,19.958-40.017,20.174c-7.936-6.724-15.875-13.45-23.812-20.174c-2.425,0-4.851,0-7.276,0
			c-3.968,0-7.938,0-11.906,0c-5.133,1.872-18.89,11.708-21.497,16.205c0.537,7.038,18.531,22.829,23.481,27.78
			c21.769,21.772,43.834,43.994,63.497,67.797c0,0.551,0,1.102,0,1.654c-5.714,4.31-24.408,15.081-35.717,11.575
			c-10.549-3.271-18.438-16.862-24.804-24.804c-17.195-19.18-34.396-38.365-51.592-57.544c-5.111-6.341-18.952-17.159-20.835-25.134
			c-1.734-7.342,12.182-13.264,15.213-17.528c-28.88,0-57.768,0-86.647,0c-7.716,4.189-15.434,8.379-23.15,12.567
			c-21.325,12.349-45.701,23.864-73.419,29.103c-7.779,1.47-19.503,0.688-26.788-0.331c-19.004-2.657-38.333-3.508-56.552-7.606
			c-10.922-2.457-26.286-5.908-38.032-2.315c-15.322,4.687-28.936,12.389-42.993,18.52c-19.18,8.047-38.365,16.096-57.544,24.142
			c-11.56,4.928-24.875,12.547-38.032,14.551c0,11.133,0,22.269,0,33.402c12.566-4.519,25.136-9.04,37.702-13.559
			c44.717-17.337,83.285-37.976,132.286-50.269c14.174-3.556,46.791-5.464,63.828-3.307c10.692,0.11,21.387,0.22,32.079,0.331
			c7.385-0.661,14.773-1.323,22.158-1.984c11.688-2.229,22.939-5.101,32.741-8.929c6.724-2.645,13.45-5.292,20.174-7.937
			c11.527-5.068,21.256-12.594,35.056-15.544c7.295-1.559,25.28-2.98,25.465,4.961c-6.143,7.921-19.895,11.682-28.772,16.867
			c-20.874,12.191-45.101,19.915-72.757,25.465c-11.574,0.992-23.151,1.984-34.725,2.976c-4.96,0-9.922,0-14.882,0
			c-19.541-0.003-41.406-3.308-58.206,0.661c-38.254,9.038-68.676,28.795-101.86,43.324c-17.081,7.478-35.043,12.901-53.907,18.851
			c-12.125,3.637-24.254,7.276-36.379,10.914c0,14.991,0,29.986,0,44.977c8.928-3.968,17.859-7.938,26.788-11.906
			c12.237-5.314,24.295-8.984,37.702-13.559c4.697-1.603,21.357-8.381,26.788-6.945c6.107,1.614,11.414,11.132,14.882,15.874
			c9.394,12.847,17.304,26.684,25.796,40.678c3.059,5.04,9.104,12.16,9.922,18.52c-4.409,2.535-8.82,5.071-13.229,7.606
			c-10.912,6.063-21.828,12.127-32.741,18.189c-31.966,17.967-63.941,35.94-95.907,53.907c0,19.29,0,38.585,0,57.875
			c3.197,1.212,6.394,2.425,9.591,3.638c11.38,2.125,40.595-19.478,48.615-24.473c36.534-22.752,73.72-44.159,109.797-66.804
			c12.101-7.596,23.2-15.811,34.064-24.473c3.382-2.696,8.813-6.541,9.26-11.906c0.553-6.633-8.1-19.373-10.914-24.142
			c-10.141-18.739-20.285-37.483-30.426-56.222c-2.36-4.518-14.119-21.253-11.575-27.449c3.41-8.307,21.163-14.208,30.095-17.859
			c25.701-10.503,74.005-25.037,111.451-18.851c13.199,2.181,30.073,0.535,37.702,8.268c0,0.11,0,0.221,0,0.331
			c-16.964,23.957-62.54,9.335-94.585,17.197c-8.935,2.192-25.43,5.462-27.78,13.229c-1.874,6.194,9.169,19.963,11.575,23.812
			c11.023,18.408,22.049,36.821,33.072,55.229c3.312,5.294,12.664,14.853,10.583,23.15c-4.889,19.489-37.196,37.481-52.914,47.954
			c-48.691,32.442-100.151,62.122-149.153,94.585c-14.44,9.039-28.884,18.08-43.324,27.119c-5.584,1.941-19.94,1.165-25.134-0.331
			c0,24.36,0,48.728,0,73.088c4.363-1.566,7.87-0.257,12.567-1.323c33.727-7.656,50.349,7.445,68.458,21.166
			c13.337,11.243,26.679,22.49,40.017,33.733c7.623,6.005,34.286,25.685,27.78,41.339c-4.794,11.536-29.599,28.256-40.017,36.048
			c-36.044,28.328-72.099,56.665-108.144,84.994c-1.881,2.174-0.662,25.116-0.661,30.095c0,28.88,0,57.768,0,86.647
			c0.11,0,0.22,0,0.331,0c10.141-8.928,20.285-17.859,30.426-26.788c36.797-28.909,68.854-63.293,105.167-92.6
			c22.509-18.166,40.361-47.386,74.411-53.245c17.272-2.972,24.86,10.24,31.418,18.52c19.708,24.885,40.512,49.027,60.19,74.08
			c64.315,81.882,130.342,162.015,191.153,247.706c15.961,22.492,32.242,45.029,48.284,67.797
			c3.682,5.226,16.434,20.489,17.528,26.126c152.775,0,305.596,0,458.371,0c-1.396-4.745-9.815-7.023-14.221-8.929
			c-11.883-5.141-24.92-9.737-37.702-14.221c-4.746-1.665-12.928-2.426-15.544-6.283c1.433-6.503,2.866-13.009,4.299-19.512
			c5.325-17.666,11.836-34.951,17.859-51.592c3.152-8.708,4.109-22.422,12.898-25.465c6.462-2.238,15.252,0.927,19.843,2.315
			c15.04,4.546,28.37,9.549,42.662,14.551c37.013,12.955,90.777,26.092,104.506,61.513c5.594,14.431,1.902,31.621,0.661,47.623
			c1.653,0,3.307,0,4.961,0c-0.441-6.393-0.882-12.788-1.323-19.182c0.551,6.393,1.102,12.788,1.654,19.182
			c38.028,0,76.068,0,114.097,0c-4.736-37.073,0.278-74.931-5.292-110.79c-3.512-22.613-0.894-41.162-15.213-52.253
			c-12.364-9.576-39.37-14.894-55.56-21.166c-44.532-16.093-89.077-32.191-133.609-48.284c-26.564-10.254-70.332-9.21-61.513-51.592
			c1.023-4.917,3.05-9.091,4.63-13.229c-0.86-0.649-0.31-0.323-1.323-0.331c13.402-17.939,30.355-21.963,57.875-14.221
			c34.391,11.133,68.792,22.269,103.183,33.402c43.209,13.337,86.431,26.679,129.64,40.017
			c19.085,6.023,43.092,10.061,54.237,24.142c10.513,13.283,11.101,30.005,14.551,51.261c0.22,4.85,0.441,9.702,0.661,14.551
			c1.874,21.384,3.748,42.775,5.622,64.159c0.331,6.393,0.661,12.788,0.992,19.182c1.653,21.715,3.307,43.436,4.961,65.151
			c116.731,0,233.497,0,350.227,0c0-0.331,0-0.661,0-0.992c-8.275-10.888-17.918-20.531-25.134-32.741
			c-19.92-33.707-24.65-77.837-33.733-122.695c-2.535-18.408-5.071-36.821-7.606-55.229c5.394-4.183,14.301-3.784,22.489-5.291
			c22.081-4.065,50.562-2.824,71.435,1.654c5.766,10.029,6.28,29.099,9.26,41.67c5.291,24.911,10.583,49.83,15.874,74.742
			c2.49,11.081,3.429,22.013,7.276,31.749c14.599,36.947,70.578,50.279,106.49,67.135c11.243,0,22.49,0,33.733,0
			c0-40.784,0-81.581,0-122.365c-4.185-10.83-6.396-23.285-9.921-34.725c-3.818-12.392-8.9-25.556-10.914-39.024
			c2.879-5.034,13.029-7.402,20.835-7.276c0-52.248,0-104.511,0-156.759c-6.273-14.221-12.723-29.841-16.866-45.969
			c-4.517-17.586-0.354-35.629,16.866-37.04c0-27.557,0-55.122,0-82.679c-30.512,0.207-77.841-1.114-71.104-35.717
			c5.69-29.227,40.432-22.435,71.104-21.827c0-13.337,0-26.679,0-40.017c-21.604-1.874-43.216-3.748-64.82-5.622
			c-17.416-1.653-34.837-3.307-52.253-4.961c-9.231-1.572-34.38-3.479-36.709,3.969c-1.958,6.26,1.699,19.863,2.646,25.134
			c1.696,9.449,0.825,20.573,4.63,28.111c7.955,15.759,43.204,26.566,59.859,35.056c5.291,2.756,10.583,5.512,15.874,8.268
			c1.984,7.165,3.969,14.332,5.953,21.497c0.994,3.226,4.466,9.628,2.315,14.221c-1.672,3.569-7.785,1.362-10.583,0.331
			c-10.692-3.858-21.387-7.717-32.079-11.575c-29.559-10.527-60.385-21.479-85.324-37.04c-10.381-6.477-21.406-13.446-26.126-25.465
			c-4.095-10.426-3.607-23.176-5.622-36.048c-0.11-7.606-0.22-15.214-0.331-22.819c-2.401-15.063-1.04-36.189,7.276-42.662
			c10.016-7.796,45.378-5.792,60.852-3.307c51.476,4.409,102.968,8.82,154.444,13.229c0-14.109,0-28.222,0-42.332
			c-27.667-2.094-55.342-4.189-83.01-6.284c-22.707-1.874-45.42-3.748-68.127-5.622c-14.991-1.102-29.986-2.205-44.977-3.307
			c-40.881-6.543-83.513-5.619-123.026-12.898c-24.691-3.307-49.389-6.615-74.08-9.921c-9.976-1.75-22.221-0.63-26.127,5.622
			c-3.469,5.553-3.421,13.747-4.961,21.166c-3.307,18.739-6.615,37.483-9.921,56.222c-1.343,6.051-4.966,19-1.654,24.804
			c3.527,6.178,41.85,16.122,54.237,13.89c13.888-2.503,10.318-16.053,12.567-30.095c3.19-19.922,0.017-40.153,19.843-43.654
			c6.863-1.212,15.638,0.193,20.835,1.323c31.743,6.9,25.247,30.714,26.457,65.151c0.513,14.603,4.756,40.875-0.331,51.592
			c-7.289,15.357-39.613,11.66-57.214,7.606c-32.297-6.503-64.603-13.009-96.9-19.512c-24.512-6.05-47.968-9.12-53.576-33.733
			c-2.305-10.116,2.593-27.256,4.63-36.379c6.503-29.1,13.009-58.209,19.512-87.309c3.707-15.007,5.105-29.609,18.189-35.056
			c11.558-4.811,31.568-1.886,43.655,0.331c30.753,4.299,61.516,8.599,92.27,12.898c39.393,7.273,81.625,6.009,122.365,12.567
			c11.464,0.772,22.931,1.543,34.395,2.315c24.801,1.874,49.61,3.748,74.411,5.622c11.684,0.882,23.372,1.764,35.056,2.646
			c20.635,3.294,43.213,3.245,65.482,2.976c0-46.185,0-92.384,0-138.57c-12.759-0.113-25.243-3.546-36.379-6.284
			c-16.025-3.94-32.108-6.417-46.962-10.914c-10.865-3.289-23.587-5.293-29.764-13.229c-5.697-7.319-8.338-19.664-11.244-29.434
			c-3.197-10.746-8.633-29.628-6.284-43.985c1.874-7.826,3.748-15.655,5.622-23.481c2.04-11.694-3.032-23.549-10.252-26.457
			c-11.457-4.614-27.154-3.588-40.017-5.953c-34.06-4.63-68.131-9.26-102.191-13.89c-18.7-3.476-45.735-0.157-45.969-22.158
			c5.001-1.223,12.364,0.822,17.197,1.654c12.456,1.543,24.915,3.087,37.371,4.63c42.438,5.622,84.888,11.245,127.325,16.866
			c20.219,3.664,47.006,2.912,57.214,16.536c6.559,8.755,8.945,27.423,4.961,40.678c-1.947,6.477-6.541,13.899-4.961,23.15
			c2.425,8.708,4.851,17.418,7.276,26.126c2.334,7.911,3.167,17.796,7.606,23.812c3.696,5.009,10.946,6.05,17.859,7.937
			c15.157,4.139,35.162,9.205,51.592,10.252c0-8.598,0-17.198,0-25.796c-9.203-0.518-21.644-4.163-24.804-10.914
			c-3.531-7.545,6.888-25.896,11.244-27.78c3.62-1.566,9.789-0.421,13.559,0c-0.356-2.201-12.952-9.516-15.213-12.567
			c-10.291-13.89,1.953-28.935,15.213-32.41c0-9.369,0-18.742,0-28.111c-44.016-0.111-70.417-18.007-107.813-24.804
			C1800.597,10.908,1785.712,9.365,1770.832,7.821z M1231.766,178.47c7.601-13.05,19.823-45.972,30.756-53.245
			c3.273-2.177,7.599-1.901,11.575-3.638c17.237,0.042,31.426,2.598,45.969,5.622c10.913,1.653,21.828,3.307,32.741,4.961
			c18.173,3.613,38.021,3.488,54.899,8.929c0.11,0.22,0.22,0.441,0.331,0.661c-2.581,6.718-5.766,12.451-11.575,15.874
			c-14.242,8.393-54.301-0.969-69.781-3.969c-5.312-1.029-21.874-5.405-27.119-1.984c-5.675,3.702-15.878,33.65-19.512,42.001
			c-12.456,27.336-24.915,54.681-37.371,82.017c-5.948,11.695-11.408,25.916-23.15,31.749c-15.214,7.558-41.793,2.267-59.198,0.661
			c0-0.11,0-0.22,0-0.331C1186.427,266.853,1206.988,221.01,1231.766,178.47z M1125.937,156.643
			c6.503-11.133,13.009-22.269,19.512-33.402c3.39-5.714,6.058-12.982,11.244-16.866c2.646-1.102,5.292-2.205,7.937-3.307
			c11.565-0.197,23.898,0.221,27.78,7.606c3.581,6.814-7.3,25.269-9.921,29.764c-12.028,20.627-18.509,55.97-55.229,39.686
			C1116.918,175.538,1121.392,164.289,1125.937,156.643z M1127.591,213.526c2.123,5.451-10.108,23.89-12.567,28.111
			c-11.242,19.295-30.254,69.433-65.812,47.623c-13.103-8.036-5.326-19.851,0.661-29.764c7.495-11.574,14.993-23.151,22.489-34.725
			c3.127-4.7,5.779-10.889,10.252-14.221c4.243-3.161,9.21-2.354,14.882-4.63C1108.122,206.801,1123.839,205.895,1127.591,213.526z
			 M1058.14,92.484c11.296,2.34,22.094,2.54,28.772,9.26c1.789,9.496-12.034,25.202-16.205,31.749
			c-5.901,9.261-11.71,22.242-22.158,26.788c-11.147,4.85-34.15,4.029-47.954,1.654c-30.753-3.637-61.516-7.276-92.27-10.914
			c-12.015-1.543-24.033-3.087-36.048-4.63c-0.22,0-0.441,0-0.661,0c2.212-5.923,15.376-18.352,21.827-20.174
			c9.964-2.813,24.587,0.262,33.733,1.984c20.392,2.204,40.79,4.41,61.182,6.614c21.228,3.76,32.784,3.736,42.331-9.921
			c1.906-2.726,4.586-5.397,4.961-9.591c-5.695-5.862-18.67-4.502-28.441-6.284c-22.4-4.084-48.019-3.295-69.45-9.26
			c-16.07-4.473-35.59-16.749-21.166-35.056c5.536-7.027,14.34-12.508,24.142-15.213c2.866-0.441,5.733-0.882,8.599-1.323
			c8.736,0.597,12.914,1.655,17.528,6.945c-0.921,6.181-14.182,12.937-10.252,20.174c3.343,6.852,25.263,6.5,34.725,8.268
			C1013.274,87.653,1036.973,88.1,1058.14,92.484z M804.482,231.054c12.786,3.637,25.577,7.276,38.363,10.914
			c16.534,6.393,33.073,12.788,49.607,19.181c7.221,2.96,14.465,4.803,20.835,8.599c4.572,2.724,7.841,6.995,11.906,9.921
			c13.1,9.43,27.792,17.956,34.394,33.733c-4.76,8.383-23.214,16.174-33.072,20.174c-3.518,1.427-8.437,4.797-12.898,2.976
			c-5.683-2.319-9.368-8.29-13.89-11.906c-16.181-12.937-26.435-31.002-44.977-41.67c-22.63-13.02-57.281-20.43-86.647-26.457
			c-15.12-3.103-32.744-2.858-45.969-7.606c-5.414-9.259,9.948-20.865,14.552-25.465c11.023-10.361,22.049-20.726,33.071-31.087
			c6.958-5.617,12.474-12.881,20.504-17.528c4.123-2.385,9.316-1.964,14.221-3.969c33.733,0.129,63.492,4.279,93.262,9.591
			c14.219,1.653,28.443,3.307,42.662,4.961c16.55,2.675,40.954-1.84,47.623,10.583c-0.238,14.716-26.843,21.178-44.316,18.189
			c-27.998-3.527-56.004-7.056-84.002-10.583c-10.844-2.107-27.877-6.544-40.016-3.307c-12.33,3.288-19.197,18.048-28.442,25.134
			c0,0.331,0,0.661,0,0.992C793.934,229.683,799.917,229.663,804.482,231.054z M679.802,413.94
			c-2.963-11.323-16.03-18.894-24.473-25.134c-9.691-7.162-28.874-25.521-40.678-28.111c-10.572-2.32-18.761,8.839-23.811,13.89
			c-11.984,11.987-23.478,25.034-36.709,35.717c-4.043,3.264-7.508,10.005-12.898,11.575c-9.396-5.536-17.112-12.541-29.103-16.205
			c-15.335-4.686-33.838-4.435-47.954-9.921c-20.992-8.159-38.414-18.06-54.568-30.757c-13.453-10.573-34.618-35.031-13.229-51.922
			c5.357-4.231,12.529-7.462,20.174-9.26c2.535-0.331,5.071-0.661,7.606-0.992c10.814-0.113,22.183,0.902,26.127,7.606
			c-0.593,5.58-6.483,9.192-3.969,16.205c2.53,7.057,9.503,11.525,15.213,15.544c13.887,9.774,47.54,29.663,72.757,22.158
			c26.672-7.938,36.708-42.226,63.167-49.607c14.489-4.042,30.287,3.867,39.355,8.599c27.611,14.407,53.091,33.892,78.049,51.592
			c9.781,6.937,24.694,17.034,27.78,30.095c2.563,10.844-7.197,25.608-10.914,31.418c-10.534,16.469-22.271,30.785-33.733,45.969
			c-6.789,8.994-13.716,18.162-22.819,24.804c-5.021,3.663-25.618,15.13-35.056,10.914c-10.591-4.732-11.116-24.124-5.622-34.394
			c9.281-17.35,23.93-31.32,35.386-46.962C673.764,431.457,682.448,424.05,679.802,413.94z M633.171,244.283
			c-6.874,4.129-39.277,11.641-45.969,2.976c-7.038-9.111,17.134-25.537,22.489-29.764c25.346-20.011,46.993-46.204,75.403-62.836
			c5.743-3.362,12.038-2.941,19.182-5.622c9.103-0.163,22.397-0.966,25.134,5.291c0.11,0.11,0.22,0.22,0.331,0.331
			c-0.846,6.387-17.534,19.815-22.489,23.812c-16.424,14.881-32.853,29.766-49.277,44.647
			C649.575,229.893,642.703,238.558,633.171,244.283z M380.174,91.823c14.977-5.753,32.898-2.099,42.662,5.622
			c13.265,10.49,26.476,30.219,36.379,44.316c4.287,6.102,8.443,15.678,14.551,19.843c6.777,4.621,36.132,2.981,47.623,2.976
			c8.191-0.003,16.003-0.641,22.489-2.646c17.533-5.42,38.113-25.395,52.253-36.048c5.307-3.998,15.858-9.731,17.528-16.866
			c1.879-8.03-15.414-20.957-19.181-25.796c-21.443-27.542-8.022-47.692,19.512-58.537c14.676-5.78,41.134-6.151,59.529-2.976
			c8.928,0.551,17.859,1.102,26.788,1.654c9.039,0.551,18.08,1.102,27.119,1.654c9.81-0.661,19.623-1.323,29.434-1.984
			c20.172-3.637,40.349-7.276,60.521-10.914c12.897-1.102,25.797-2.205,38.694-3.307c11.353,0,22.71,0,34.064,0
			c22.245-2.641,45.132-0.519,65.482-3.969c7.496-0.882,14.993-1.764,22.489-2.646c7.017-0.028,15.547-0.599,21.496,0.661
			c2.542,11.437-7.569,16.554-15.874,19.512c-16.907,6.021-41.41,3.419-61.182,6.614c-6.976,1.127-13.809,0.369-19.843,2.315
			c-9.746,3.143-20.918,19.084-27.119,26.788c-15.704,19.511-35.485,36.41-55.56,51.592c-6.118,4.626-17.11,14.958-25.134,16.536
			c-2.866-2.976-5.733-5.953-8.599-8.929c-7.631-6.083-16.582-10.667-26.457-14.552c-19.4-5.181-38.806-10.363-58.206-15.544
			c-0.22,0-0.441,0-0.661,0c0-0.11,0-0.221,0-0.331c8.047-6.063,16.096-12.127,24.142-18.189c5.732,0.992,11.465,1.984,17.197,2.976
			c11.693,2.669,22.594,4.575,33.402,7.937c5.899,1.835,14.655,6.584,22.819,4.961c7.479-1.487,11.766-8.478,16.866-12.567
			c9.678-7.759,28.966-25.383,34.394-36.379c0-0.551,0-1.102,0-1.654c-7.695-5.419-34.263-0.351-44.977,1.984
			c-37.752,8.227-89.795,14.089-133.278,7.276c-17.257-2.704-36.122-5.337-43.324,7.606c-4.014,7.214,1.777,13.488,4.961,17.528
			c10.157,12.886,23.47,21.824,32.741,35.717c-1.905,1.148-1.752,3.834-2.976,5.622c-3.197,3.417-6.394,6.835-9.591,10.252
			c-19.264,15.42-37.882,31.521-57.544,46.631c-9.936,7.635-19.375,18.302-31.749,23.15c-10.803,4.233-48.755,2.869-62.505,0.661
			c-20.12-3.229-45.923,3.511-63.828-1.984c-22.851-7.012-38.435-45.285-51.261-64.49c-5.012-7.505-14.424-16.784-15.874-26.788
			C372.522,93.956,376.472,93.245,380.174,91.823z M291.543,169.872c3.721-10.923,24.316-11.956,35.717-16.205
			c2.315,0.22,4.63,0.441,6.945,0.661c5.708,2.743,9.279,14.465,12.567,19.843c9.329,15.255,22.162,41.777,39.686,47.954
			c13.078,4.61,35.732,1.603,49.938-0.661c30.959-4.936,65.34,1.707,81.687,14.552c14.147,11.116-0.689,26.347-10.914,30.756
			c-5.543,2.39-11.199,2.713-18.189,3.969c-3.968,0.331-7.938,0.661-11.906,0.992c-2.21-1.554-1.885-6.967-2.976-9.591
			c-2.348-5.643-7.736-9.394-13.89-11.244c-16.816-5.055-54.046-3.301-72.757,0c-13.536,2.388-34.522,3.802-46.3-0.992
			c-21.815-8.88-27.602-37.068-39.024-56.552C299.723,189.256,289.656,175.409,291.543,169.872z M829.947,883.224
			c-3.161,16.715-6.986,31.15-10.914,46.631c-5.327,20.998-8.291,43.613-23.15,54.899c-36.447,27.68-90.959,8.565-126.995-5.622
			c-31.003-12.205-64.088-23.916-89.293-42.332c-21.491-15.702-38.986-37.872-55.229-58.867
			c-23.108-29.867-48.824-57.953-71.765-88.301c-18.948-25.066-38.453-49.472-56.552-75.734
			c-3.127-4.537-17.524-21.734-12.236-29.764c7.481-11.362,33.917-18.937,49.938-22.489c7.254-1.608,18.852-1.243,23.481,1.984
			c6.102,4.255,9.491,12.841,13.89,18.851c9.7,12.235,19.403,24.474,29.103,36.709c18.981,24.353,41.293,46.108,60.521,70.112
			c19.918,24.865,41.957,49.551,68.127,68.127c19.263,13.673,41.508,26.616,66.143,34.394c8.491,2.681,22.438,5.932,30.756,0.992
			c10.684-6.345,13.466-21.108,16.867-34.725c1.323-8.708,2.646-17.418,3.969-26.126c3.506-21.023-5.17-39.5-12.567-50.599
			c-27.901-41.866-97.934-43.891-137.247-74.411c-36.898-28.646-61.747-72.893-85.986-114.097
			c-11.374-19.335-19.95-39.864-33.402-56.883c-17.128-21.671-42.879-30.148-68.789-43.324
			c-23.171-11.783-43.362-25.395-63.167-40.347c-24.25-18.959-48.507-37.924-72.757-56.883c-5.476-4.21-19.908-20.654-29.103-18.851
			c-7.08,1.388-12.713,6.642-17.859,10.252c-9.958,6.988-19.616,13.994-29.103,21.166c0.951,6.174,7.88,10.352,11.244,14.551
			c8.571,10.699,17.767,22.161,28.442,30.757c50.123,40.362,112.029,69.329,161.389,110.459c0,0.11,0,0.22,0,0.331
			c-11.347,9.052-49.732,27.453-67.797,28.441c-31.427-28.998-68.787-52.771-105.829-76.064
			c-23.859-15.003-47.555-27.814-64.82-49.277c-9.202-11.439-19.064-21.932-27.119-34.725c-2.811-4.465-8.588-10.187-6.945-18.52
			c3.014-15.287,31.742-28.675,43.654-37.04c33.485-23.515,66.476-46.558,107.482-62.505c10.117-3.934,21.57-6.138,33.072-8.268
			c6.944-0.331,13.891-0.661,20.835-0.992c6.031,1.635,11.482,1.653,16.536,3.969c4.846,2.221,8.235,6.265,12.236,9.26
			c-0.929,5.153-13.631,6.469-18.189,8.268c-11.669,4.605-29.98,10.25-35.717,20.835c0.288,12.523,31.213,33.283,40.347,40.017
			c29.306,21.602,59.442,42.922,94.915,58.537c12.125,4.85,24.254,9.702,36.379,14.552c7.936,2.866,15.875,5.733,23.811,8.599
			c23.67,12.064,36.131,35.618,49.938,57.544c25.202,40.024,54.704,95.082,92.6,121.372c52.098,36.142,133.475,27.218,168.003,83.34
			c3.527,6.063,7.056,12.127,10.583,18.189c6.121,18.692,5.673,39.984,9.26,61.844c0.11,6.614,0.221,13.229,0.331,19.843
			C833.866,846.996,832.713,868.599,829.947,883.224z M827.632,529.359c-14.458,4.151-43.357-11.288-43.654-21.166
			c-0.205-6.787,8.338-14.089,11.575-18.52c8.969-12.277,33.528-41.221,27.78-62.505c-3.014-11.162-9.509-20.855-14.882-30.095
			c-3.086-6.944-6.174-13.891-9.26-20.835c-7.405-14.564-19.455-25.06-33.071-33.402c-13.337-6.614-26.679-13.229-40.017-19.843
			c-6.24-2.742-16.413-5.873-18.52-12.567c-4.263-13.54,17.814-19.901,26.457-23.481c29.506,5.429,49.448,17.398,72.427,29.103
			c15.343,7.815,32.43,15.537,42.662,28.442c7.92,9.988,13.055,21.734,19.843,33.072c5.767,9.632,24.557,37.328,21.496,52.253
			c-4.336,21.151-17.438,37.501-27.78,53.245c-7.898,12.024-15.58,23.853-24.142,35.056
			C835.737,521.79,832.484,527.966,827.632,529.359z M1585.631,1013.195c-3.67,1.487-9.951-1.854-13.559-2.976
			c-12.065-3.752-22.744-7.924-33.402-12.567c-28.534-12.43-54.785-29.203-64.159-60.852c-3.382-11.418-2.531-23.956-4.63-37.04
			c-2.315-22.045-4.63-44.098-6.945-66.143c-2.704-15.922-1.082-33.218-8.929-43.654c-9.451-12.569-29.278-14.766-46.3-19.843
			c-20.943-5.622-41.893-11.245-62.836-16.866c-15.401-4.569-31.766-6.581-43.985-14.221c-8.059-5.039-13.956-12.232-18.851-20.504
			c-7.46-12.607-9.561-28.883-5.953-46.631c0.775-3.81,0.542-7.91,1.984-10.914c13.227,3.086,26.458,6.174,39.686,9.26
			c47.949,12.015,95.912,24.033,143.861,36.048c26.99,7.767,60.383,9.712,75.734,29.103c11.737,14.825,13.124,34.975,17.528,57.875
			c5.842,35.162,11.686,70.336,17.528,105.498c5.147,23.764,7.609,48.087,12.236,72.757
			C1586.902,983.589,1589.197,1001.316,1585.631,1013.195z M1607.458,590.211c38.448,8.565,77.467,14.576,113.766,25.465
			c20.812,6.243,43.465,12.827,55.56,27.78c4.369,5.401,8.945,10.726,12.567,16.866c8.753,14.839,11.424,34.162,16.205,52.914
			c6.944,30.533,13.891,61.075,20.835,91.608c2.976,12.897,5.953,25.797,8.929,38.694c2.155,8.454,5.202,16.801,4.961,27.119
			c-5.519,5.579-13.211,5.069-23.15,6.614c-24.52,3.812-49.954-3.906-62.836-13.89c-12.995-10.072-12.589-32.721-16.536-51.922
			c-4.74-27.667-9.481-55.342-14.221-83.01c-3.615-17.474-4.506-34.349-13.559-45.969c-6.69-8.587-19.24-13.512-31.418-16.536
			c-26.014-5.181-52.035-10.363-78.049-15.544c-68.451-14.44-136.923-28.884-205.374-43.324
			c-18.739-3.637-37.483-7.276-56.222-10.914c-31.304-6.283-62.619-12.568-93.923-18.851c-10.828-2.528-30.875-9.024-43.985-5.291
			c-11.096,3.159-14.156,14.413-18.189,24.804c-7.495,21.604-14.993,43.216-22.489,64.82c-4.144,10.577-7.58,24.431-20.174,26.457
			c-16.816,2.705-44.296-16.985-50.93-25.796c-2.712-3.601-8.676-8.73-7.276-15.874c2.231-11.382,6.945-23.163,10.914-33.402
			c7.771-20.05,14.768-39.838,22.819-58.867c5.105-12.065,8.218-27.462,15.874-37.371c4.452-5.762,10.381-4.836,17.859-7.937
			c27.254,0.046,49.538,3.992,72.427,8.929c21.715,3.527,43.436,7.056,65.151,10.583c33.024,6.837,65.412,8.832,97.561,15.874
			C1459.225,560.598,1533.661,573.77,1607.458,590.211z M1795.966,263.134c7.935,1.264,26.947,2.72,29.764-2.976
			c3.541-9.573-13.171-37.74-7.606-47.623c2.126-3.776,6.353-3.826,10.583-5.622c42.898-0.378,43.292,14.236,52.914,46.3
			c1.774,5.911,11.211,32.738,9.591,38.032c-1.174,3.836-6.566,5.198-10.914,5.953c-11.308,1.962-30.223,0.211-40.347-1.323
			c-25.022-1.764-50.051-3.528-75.072-5.291c-26.675-1.874-53.358-3.748-80.033-5.622c-13.779-1.323-27.561-2.646-41.339-3.969
			c-39.792-5.401-79.596-10.804-119.388-16.205c-30.202-4.189-60.414-8.379-90.616-12.567c-9.016-1.67-30.278-6.049-39.686-2.315
			c-6.298,2.5-6.85,9.438-8.929,16.205c-4.078,13.448-8.158,26.9-12.237,40.347c-10.912,34.391-21.828,68.792-32.741,103.183
			c-6.342,17.537-11.737,38.451-25.465,48.615c-14.587,10.8-47.578,8.334-68.789,4.63c-41.378-7.225-80.497-10.214-119.057-19.843
			c-9.59-2.094-19.182-4.189-28.772-6.284c-8.391-2.133-20.791-7.114-31.749-4.299c-8.009,2.057-9.817,9.504-13.229,16.205
			c-6.944,13.889-13.891,27.781-20.835,41.67c-19.42,38.078-37.853,77.168-62.505,109.797c-7.445,9.854-16.982,21.145-27.78,27.449
			c-7.71,4.501-22.334,4.207-32.741,5.953c-33.26,5.581-76.43-4.872-64.82-42.993c2.576-8.458,7.285-15.092,11.906-21.497
			c14.745,0.319,32.984,10.361,48.946,3.969c15.02-6.015,20.904-25.382,28.772-38.694c18.408-32.848,36.821-65.705,55.229-98.553
			c8.373-14.178,21.635-46.294,37.04-51.592c13.85-4.763,39.973,3.992,51.922,6.945c40.23,9.941,81.088,15.448,123.026,23.811
			c14.009,2.794,52.708,10.551,62.505,3.307c7.851-5.805,14.036-30.824,18.189-41.339c13.448-35.824,26.899-71.659,40.347-107.482
			c6.89-17.339,10.668-45.132,30.095-49.938c12.9-3.191,34.475-1.065,46.962,0.992c27.61,4.548,55.151,4.94,81.356,9.921
			c14.771,1.874,29.545,3.748,44.316,5.622c39.416,7.172,79.8,9.121,120.38,15.874c20.612,1.653,41.231,3.307,61.844,4.961
			C1736.655,258.944,1766.315,261.039,1795.966,263.134z"/>
		<path style="fill:#ecf39e;" d="M393.734,27.995c-12.786,7.055-25.577,14.111-38.363,21.166
			c14.094-4.671,25.02-15.12,38.363-20.174C393.907,28.097,394.649,28.377,393.734,27.995z"/>
		<path style="fill:#ecf39e;" d="M315.023,159.289c-0.308-1.496,0.046-0.973-0.992-1.654c-0.331,0.882-0.661,1.764-0.992,2.646
			c0.221,0.11,0.441,0.221,0.661,0.331C314.141,160.171,314.582,159.73,315.023,159.289z"/>
		<path style="fill:#ecf39e;" d="M7.458,818.074c-0.11,0.22-0.22,0.441-0.331,0.661c0.331,0.221,0.661,0.441,0.992,0.661
			c0.221-0.441,0.441-0.882,0.661-1.323C8.34,818.074,7.899,818.074,7.458,818.074z"/>
		<path style="fill:#ecf39e;" d="M249.542,368.301c-0.238-1.099,0.184-1.128,0.661-2.315c-0.331,0-0.661,0-0.992,0
			c-0.22,0.441-0.441,0.882-0.661,1.323c0,0.992,0,1.984,0,2.976c1.077,0.99,4.719,0.594,6.614,0.661
			c0.11-0.22,0.22-0.441,0.331-0.661c0-0.441,0-0.882,0-1.323c-1.874,0.221-3.748,0.441-5.622,0.661
			C249.762,369.183,249.652,368.742,249.542,368.301z"/>
		<path style="fill:#ecf39e;" d="M1897.826,0.546c-16.203,0-32.412,0-48.615,0c6.503,1.984,13.009,3.969,19.512,5.953
			c16.958,6.021,32.698,12.703,54.568,14.221c0-4.85,0-9.702,0-14.551C1913.137,6.08,1905.417,2.968,1897.826,0.546z"/>
		<path style="fill:#ecf39e;" d="M319.323,158.297c0.441,0,0.882,0,1.323,0c0.221,0,0.441,0,0.661,0
			c-0.466-1.705-0.614-1.837-2.646-1.984C318.412,157.579,318.31,157.502,319.323,158.297z"/>
		<path style="fill:#ecf39e;" d="M100.72,733.411c-0.11,0.551-0.22,1.102-0.331,1.654c0.11,0.22,0.221,0.441,0.331,0.661
			c0.22-0.11,0.441-0.221,0.661-0.331C101.232,734.064,101.277,734.106,100.72,733.411z"/>
		<path style="fill:#ecf39e;" d="M183.068,673.882c-0.197,1.121-0.26,0.792,0.331,1.654c0.331-0.331,0.661-0.661,0.992-0.992
			C183.95,674.323,183.509,674.102,183.068,673.882z"/>
		<path style="fill:#ecf39e;" d="M103.035,731.426c-0.11,0.22-0.22,0.441-0.331,0.661c0.11,0.331,0.221,0.661,0.331,0.992
			c0.441-0.331,0.882-0.661,1.323-0.992C103.917,731.867,103.476,731.647,103.035,731.426z"/>
		<path style="fill:#ecf39e;" d="M97.743,734.733c-0.11,0.441-0.22,0.882-0.331,1.323c0.331,0.441,0.661,0.882,0.992,1.323
			c0.11,0,0.22,0,0.331,0c0.22-0.551,0.441-1.102,0.661-1.654c-0.11-0.11-0.22-0.221-0.331-0.331c0-0.22,0-0.441,0-0.661
			C98.625,734.733,98.184,734.733,97.743,734.733z"/>
		<path style="fill:#ecf39e;" d="M161.241,688.103c0,0.441,0,0.882,0,1.323c0.331,0.221,0.661,0.441,0.992,0.661
			c0.22-0.22,0.441-0.441,0.661-0.661C162.343,688.984,161.792,688.543,161.241,688.103z"/>
		<path style="fill:#ecf39e;" d="M105.35,728.119c-0.22,0.331-0.441,0.661-0.661,0.992c0.652,0.528,0.452,0.449,1.654,0.661
			c0.221-0.551,0.441-1.102,0.661-1.654C106.452,728.119,105.901,728.119,105.35,728.119z"/>
	</g>
</g>
</svg>
